<?xml version="1.0" encoding="UTF-8" standalone="no"?>
<!-- Generator: Adobe Illustrator 25.0.1, SVG Export Plug-In . SVG Version: 6.00 Build 0)  -->

<svg
   version="1.1"
   id="Capa_1"
   x="0px"
   y="0px"
   viewBox="0 0 841.89 360"
   style="enable-background:new 0 0 841.89 360;"
   xml:space="preserve"
   sodipodi:docname="logo.svg"
   inkscape:version="1.1 (c68e22c387, 2021-05-23)"
   xmlns:inkscape="http://www.inkscape.org/namespaces/inkscape"
   xmlns:sodipodi="http://sodipodi.sourceforge.net/DTD/sodipodi-0.dtd"
   xmlns="http://www.w3.org/2000/svg"
   xmlns:svg="http://www.w3.org/2000/svg"><defs
   id="defs35" /><sodipodi:namedview
   id="namedview33"
   pagecolor="#ffffff"
   bordercolor="#666666"
   borderopacity="1.0"
   inkscape:pageshadow="2"
   inkscape:pageopacity="0.0"
   inkscape:pagecheckerboard="0"
   showgrid="false"
   inkscape:zoom="1.7009348"
   inkscape:cx="420.94501"
   inkscape:cy="180.19503"
   inkscape:window-width="3200"
   inkscape:window-height="1271"
   inkscape:window-x="2391"
   inkscape:window-y="-9"
   inkscape:window-maximized="1"
   inkscape:current-layer="Capa_1" />
<style
   type="text/css"
   id="style2">
	.st0{fill:#DF206C;}
	.st1{fill:#E0226B;}
</style>
<path
   class="st0"
   d="M127.49,7.58C65.46,7.58,15,58.04,15,120.07v119.15c0,54.05,38.53,100.53,91.6,110.53  c5.86,1.11,11.91,1.76,17.99,1.91c0.97,0.03,1.92,0.04,2.9,0.04c62.02,0,112.48-50.46,112.48-112.48V120.07  C239.98,58.04,189.52,7.58,127.49,7.58z M139.63,153.48c-21.19,46.64-56.24,79.24-104.23,96.97c-0.45-3.71-0.67-7.47-0.67-11.23  v-35.55l120.01-97.47C152.24,118.8,147.72,135.67,139.63,153.48z M113.86,224.39c18.14-17.6,32.91-38.83,43.88-63.09  c18.65-41.24,19.85-76.63,19.89-78.11l0.63-21.5L34.73,178.25v-58.19c0-51.15,41.62-92.76,92.77-92.76  c51.15,0,92.76,41.61,92.76,92.76v82.6c-15.71,4.62-29.35,15.63-40.67,32.82c-5.93-3.03-10.51-4.3-15.72-4.5  c-20.27-0.8-38.11,14.27-40.58,34.36c0,0,0,0.01,0,0.01c-0.02,0.01-0.04,0.02-0.07,0.03c-15.56,6.87-25.79,18.48-30.41,34.52  c-0.52,1.8-0.91,3.57-1.28,5.28c-0.15,0.7-0.3,1.4-0.46,2.09l-0.14,0.6v12.05l0.39,0.96c0.07,0.18,0.15,0.36,0.24,0.54  c0.19,1.21,0.42,2.4,0.69,3.58c-24.29-10.06-43.59-30.31-52.34-55.22C68.49,259.54,93.35,244.28,113.86,224.39z M114.26,300.68  c4.04-9.27,11.98-16.08,21.78-18.66l0.84-0.22c0.71-0.19,1.46-0.38,2.32-0.62l4.32-1.18l-0.37-4.47  c-0.96-11.54,3.04-18.75,12.59-22.7c4.23-1.75,8.73-1.73,13.78,0.07c4.1,1.47,7.29,4.81,10.98,8.69l7.63,7.95l2.62-8.91  c5.12-17.42,14.78-29.04,29.5-35.47v14.05c0,24.73-9.66,48.02-27.2,65.55c-17.54,17.54-40.83,27.21-65.56,27.21  c-3.49,0-7.02-0.2-10.52-0.6c-0.56-0.87-1.1-1.79-1.62-2.75C110.71,319.95,110.31,309.76,114.26,300.68z"
   id="path4" />
<path
   class="st0"
   d="M385.21,185.25c-20.74,0-40.02-15.1-40.02-42.56c0-29.28,20.37-43.11,39.65-43.11  c22.37,0,32.38,13.64,35.47,26.01l23.65-7.46c-5.09-20.92-23.46-42.75-59.11-42.75c-34.56,0-65.66,26.19-65.66,67.3  s30.01,67.12,66.03,67.12c36.2,0,54.75-24.01,59.66-43.84l-23.47-7.09C417.95,170.88,407.22,185.25,385.21,185.25z"
   id="path6" />
<path
   class="st0"
   d="M575.28,207.07L526.17,78.11h-29.1l-49.48,128.97h26.56l10.73-29.47h52.38L548,207.07H575.28z M493.25,154.69  l17.83-48.75l17.83,48.75H493.25z"
   id="path8" />
<path
   class="st0"
   d="M640.02,78.11h-48.2v128.97h25.1v-48.57h23.1c25.47,0,42.38-16.74,42.38-40.2  C682.4,95.03,665.49,78.11,640.02,78.11z M636.93,136.86H617.1V99.94h19.83c12.55,0,20.19,7.09,20.19,18.55  C657.12,129.58,649.48,136.86,636.93,136.86z"
   id="path10" />
<path
   class="st0"
   d="M760.61,75.38c-34.92,0-66.21,25.65-66.21,67.3c0,41.47,31.29,67.12,66.21,67.12  c35.11,0,66.39-25.65,66.39-67.12C827,101.03,795.71,75.38,760.61,75.38z M760.61,185.43c-19.83,0-40.2-13.82-40.2-42.93  c0-29.1,20.37-42.93,40.2-42.93c20.01,0,40.38,13.82,40.38,42.93C800.99,171.6,780.62,185.43,760.61,185.43z"
   id="path12" />
<g
   id="g30"
   transform="matrix(1.5330062,0,0,1.4784959,-176.54765,-114.65241)">
	<polygon
   class="st0"
   points="343.06,241.73 331.23,241.73 351.76,297.26 362.88,297.26 383.48,241.73 372.04,241.73 357.55,283 "
   id="polygon14" />
	<path
   class="st0"
   d="m 394.98,239.61 c -3.53,0 -6.42,2.9 -6.42,6.5 0,3.45 2.9,6.34 6.42,6.34 3.6,0 6.42,-2.9 6.42,-6.34 0,-3.6 -2.82,-6.5 -6.42,-6.5 z"
   id="path16" />
	<rect
   x="389.81"
   y="258.72"
   class="st0"
   width="10.42"
   height="38.540001"
   id="rect18" />
	<path
   class="st0"
   d="m 443.07,272.19 c 0,-7.75 -4.54,-14.65 -16.76,-14.65 -10.34,0 -15.9,6.66 -16.53,12.69 l 9.24,1.96 c 0.31,-3.37 2.82,-6.27 7.36,-6.27 4.39,0 6.5,2.27 6.5,5.01 0,1.33 -0.71,2.43 -2.9,2.74 l -9.48,1.41 c -6.42,0.94 -11.51,4.78 -11.51,11.67 0,6.03 5.01,11.59 13.24,11.59 5.72,0 9.4,-2.66 11.36,-5.72 0,1.49 0.16,3.6 0.39,4.62 h 9.56 c -0.24,-1.33 -0.47,-4.07 -0.47,-6.11 z m -10.18,9.48 c 0,6.81 -4.08,8.93 -8.46,8.93 -3.37,0 -5.01,-2.19 -5.01,-4.47 0,-2.98 2.12,-4.46 4.78,-4.85 l 8.7,-1.33 v 1.72 z"
   id="path20" />
	<path
   class="st0"
   d="m 479.56,263.27 c -1.33,-2.59 -4.86,-5.25 -10.97,-5.25 -10.58,0 -17.94,8.62 -17.94,18.8 0,10.81 7.68,18.72 17.94,18.72 5.56,0 9.16,-2.43 10.73,-4.93 v 2.82 c 0,7.44 -3.68,10.73 -10.26,10.73 -4.93,0 -8.3,-3.05 -9.01,-7.28 l -9.4,2.51 c 1.1,7.36 8.15,13.94 18.72,13.94 14.49,0 20.21,-9.64 20.21,-20.21 v -34.38 h -10.03 v 4.53 z m -9.16,23.34 c -5.41,0 -9.24,-3.76 -9.24,-9.79 0,-5.95 4.08,-9.71 9.24,-9.71 5.01,0 9.09,3.76 9.09,9.71 0,5.95 -3.77,9.79 -9.09,9.79 z"
   id="path22" />
	<path
   class="st0"
   d="m 516.21,257.55 c -9.87,0 -18.95,7.99 -18.95,20.29 0,13 9.32,20.6 19.89,20.6 9.48,0 15.59,-5.56 17.54,-12.22 L 526,283.63 c -1.25,3.45 -3.92,5.88 -8.77,5.88 -5.17,0 -9.48,-3.68 -9.71,-8.77 h 27.57 c 0,-0.16 0.16,-1.72 0.16,-3.21 -0.01,-12.38 -7.14,-19.98 -19.04,-19.98 z m -8.46,16.05 c 0.23,-3.52 3.21,-7.6 8.61,-7.6 5.96,0 8.46,3.76 8.62,7.6 z"
   id="path24" />
	<path
   class="st0"
   d="m 564.68,257.7 c -4.15,0 -8.77,1.8 -11.12,5.8 v -4.78 h -10.1 v 38.54 h 10.42 v -22.17 c 0,-4.47 2.66,-7.99 7.21,-7.99 5.01,0 7.13,3.37 7.13,7.68 v 22.48 h 10.42 v -24.28 c -0.02,-8.46 -4.4,-15.28 -13.96,-15.28 z"
   id="path26" />
	<path
   class="st0"
   d="M 605.48,273.92 600,272.74 c -2.12,-0.39 -3.53,-1.57 -3.53,-3.45 0,-2.19 2.19,-3.84 4.93,-3.84 4.39,0 6.03,2.9 6.34,5.17 l 8.69,-1.96 c -0.47,-4.15 -4.15,-11.12 -15.11,-11.12 -8.3,0 -14.41,5.72 -14.41,12.61 0,5.4 3.37,9.87 10.81,11.51 l 5.09,1.17 c 2.98,0.63 4.15,2.04 4.15,3.76 0,2.04 -1.65,3.84 -5.09,3.84 -4.54,0 -6.81,-2.82 -7.05,-5.87 l -8.93,1.96 c 0.47,4.39 4.46,11.91 16.06,11.91 10.1,0 14.96,-6.42 14.96,-12.69 0,-5.63 -3.84,-10.26 -11.43,-11.82 z"
   id="path28" />
</g>
</svg>
