<svg width="101" height="32" viewBox="0 0 101 32" fill="none" xmlns="http://www.w3.org/2000/svg">
<path fill-rule="evenodd" clip-rule="evenodd" d="M0.895196 12.9928C1.78585 13.9918 2.92602 14.2974 3.99191 14.0543C5.84431 13.5832 6.76344 12.3204 6.71876 10.5878C6.66487 8.24983 8.27782 6.64648 10.6757 6.59935C10.8765 6.58991 11.0823 6.57908 11.2875 6.56041C11.3339 6.56056 11.3807 6.56007 11.4278 6.55894C13.8446 6.5068 15.502 8.06713 15.5507 10.3868C15.5769 10.9091 15.6135 11.4679 15.7906 11.9502C16.3801 13.4601 18.0916 14.2809 19.6853 13.898C21.2789 13.515 22.3349 12.02 22.1601 10.4002C21.9802 8.76216 20.5837 7.62271 18.8129 7.52332C18.7918 7.5216 18.7706 7.51989 18.7494 7.51818C17.9165 7.45098 17.0137 7.37814 16.2979 7.01344C14.7682 6.26215 14.3707 4.85811 14.4051 3.26129C14.4362 1.93973 13.717 0.973745 12.4909 0.436064C11.2356 -0.133095 10.0017 0.0173538 8.9416 0.925396C8.23835 1.51215 7.86747 2.21085 7.78182 2.92256C7.74859 3.09171 7.72633 3.26567 7.71567 3.44353C7.71389 3.46399 7.71213 3.4845 7.71035 3.50506C7.6409 4.31072 7.56559 5.18413 7.18858 5.87653C6.41196 7.35635 4.96055 7.74081 3.30988 7.70762C1.94375 7.67746 0.945179 8.3732 0.38936 9.55931C-0.198997 10.7736 -0.0434728 11.9674 0.895196 12.9928Z" fill="#0003A3"/>
<path d="M6.48149 3.13876C6.48149 1.40526 5.05738 -1.38283e-05 3.30065 -1.38283e-05C1.54392 -1.38283e-05 0.119812 1.40526 0.119812 3.13876C0.119812 4.87226 1.54392 6.27754 3.30065 6.27754C5.05738 6.27754 6.48149 4.87226 6.48149 3.13876Z" fill="#0003A3"/>
<path fill-rule="evenodd" clip-rule="evenodd" d="M18.1385 0.841247C17.1262 1.72013 16.8165 2.84522 17.0629 3.89702C17.5402 5.72493 18.8199 6.6319 20.5759 6.58781C22.9451 6.53464 24.5699 8.12629 24.6177 10.4925C24.6273 10.6914 24.6383 10.8955 24.6573 11.0988C24.6572 11.1438 24.6577 11.189 24.6589 11.2346C24.7117 13.6194 23.1304 15.2549 20.7797 15.303C20.2504 15.3289 19.6841 15.365 19.1953 15.5397C17.6652 16.1215 16.8334 17.8103 17.2215 19.3829C17.6095 20.9555 19.1246 21.9976 20.7661 21.8251C22.4261 21.6474 23.5808 20.2695 23.6816 18.5221C23.6833 18.5013 23.685 18.4803 23.6868 18.4594C23.7548 17.6376 23.8287 16.7466 24.1983 16.0404C24.9596 14.5308 26.3825 14.1386 28.0007 14.1725C29.34 14.2033 30.3189 13.4936 30.8638 12.2837C31.4406 11.0449 31.2881 9.82732 30.3679 8.78131C29.7731 8.08718 29.0649 7.72121 28.3435 7.6368C28.1722 7.60403 27.9959 7.58207 27.8158 7.57155C27.795 7.56981 27.7743 7.56806 27.7534 7.56631C26.937 7.49777 26.0518 7.42346 25.3502 7.05144C23.8505 6.28508 23.4609 4.85286 23.4945 3.22401C23.5251 1.87594 22.8201 0.890571 21.618 0.3421C20.3874 -0.238479 19.1778 -0.0850134 18.1385 0.841247Z" fill="#653C90"/>
<path d="M28.1244 6.35341C29.8811 6.35341 31.3052 4.94813 31.3052 3.21463C31.3052 1.48113 29.8811 0.0758514 28.1244 0.0758514C26.3677 0.0758514 24.9436 1.48113 24.9436 3.21463C24.9436 4.94813 26.3677 6.35341 28.1244 6.35341Z" fill="#653C90"/>
<path fill-rule="evenodd" clip-rule="evenodd" d="M30.4531 17.9223C29.5625 16.9233 28.4223 16.6177 27.3564 16.8608C25.504 17.3319 24.5849 18.5947 24.6296 20.3274C24.6835 22.6653 23.0705 24.2686 20.6726 24.3158C20.472 24.3252 20.2663 24.336 20.0613 24.3547C20.0147 24.3545 19.9678 24.355 19.9205 24.3561C17.5037 24.4083 15.8463 22.8479 15.7976 20.5282C15.7712 20.0059 15.7347 19.4472 15.5576 18.9649C14.9681 17.4549 13.2566 16.6341 11.663 17.0171C10.0693 17.4 9.01325 18.895 9.18806 20.5148C9.3681 22.1529 10.7646 23.2923 12.5352 23.3918C12.5564 23.3935 12.5776 23.3952 12.5989 23.3969C13.4317 23.464 14.3346 23.5369 15.0503 23.9016C16.5801 24.6529 16.9775 26.0569 16.9432 27.6538C16.912 28.9753 17.6312 29.9413 18.8573 30.479C20.1126 31.0481 21.3466 30.8977 22.4067 29.9897C23.1095 29.4032 23.4804 28.705 23.5663 27.9937C23.5996 27.8242 23.6219 27.6499 23.6326 27.4716C23.6344 27.4511 23.6362 27.4306 23.6379 27.41C23.7074 26.6043 23.7828 25.731 24.1598 25.0385C24.9364 23.5587 26.3878 23.1743 28.0385 23.2075C29.4046 23.2377 30.4031 22.5419 30.959 21.3558C31.5473 20.1415 31.3918 18.9477 30.4531 17.9223Z" fill="#D1797D"/>
<path d="M31.2153 27.7529C31.2153 26.0194 29.7911 24.6142 28.0344 24.6142C26.2777 24.6142 24.8536 26.0194 24.8536 27.7529C24.8536 29.4864 26.2777 30.8917 28.0344 30.8917C29.7911 30.8917 31.2153 29.4864 31.2153 27.7529Z" fill="#D1797D"/>
<path fill-rule="evenodd" clip-rule="evenodd" d="M13.4565 30.2701C14.4689 29.3912 14.7786 28.2661 14.5323 27.2143C14.0548 25.3864 12.7752 24.4794 11.0193 24.5235C8.65005 24.5767 7.02519 22.985 6.97743 20.6188C6.96782 20.42 6.9568 20.216 6.93774 20.0128C6.93787 19.9678 6.93738 19.9224 6.93624 19.8767C6.88342 17.4919 8.46461 15.8564 10.8154 15.8083C11.3447 15.7824 11.9109 15.7463 12.3997 15.5716C13.93 14.9899 14.7617 13.301 14.3736 11.7284C13.9855 10.1558 12.4705 9.11375 10.8289 9.28625C9.16893 9.46388 8.01428 10.8419 7.91355 12.5892C7.91182 12.61 7.91008 12.631 7.90835 12.6519C7.84025 13.4738 7.76643 14.3647 7.39683 15.071C6.63548 16.5805 5.21262 16.9727 3.59442 16.9388C2.25514 16.908 1.27622 17.6178 0.731329 18.8277C0.154543 20.0664 0.307007 21.284 1.22722 22.3301C1.82191 23.0241 2.53008 23.39 3.25144 23.4745C3.42282 23.5073 3.5991 23.5293 3.77932 23.5398C3.80005 23.5415 3.82085 23.5433 3.84168 23.545C4.65813 23.6136 5.54325 23.6879 6.24492 24.0599C7.74457 24.8262 8.13418 26.2584 8.10054 27.8874C8.06997 29.2354 8.77501 30.2208 9.97703 30.7692C11.2077 31.3498 12.4174 31.1963 13.4565 30.2701Z" fill="#FA9075"/>
<path d="M3.18084 31.0222C4.93757 31.0222 6.36168 29.6169 6.36168 27.8834C6.36168 26.1499 4.93757 24.7446 3.18084 24.7446C1.42411 24.7446 0 26.1499 0 27.8834C0 29.6169 1.42411 31.0222 3.18084 31.0222Z" fill="#FA9075"/>
<path d="M36.848 30.0893L36.7584 29.7219C36.1236 29.9938 35.9444 30.0012 35.8249 30.0012C35.6606 30.0012 35.5635 29.9424 35.5635 29.7513V26.7678H36.7584V26.4077H35.5635V25.4303L35.1528 25.5185V26.4077H34.5852V26.7678H35.1528V29.7072C35.1528 30.1775 35.3395 30.3833 35.7726 30.3833C35.9817 30.3833 36.161 30.3613 36.848 30.0893Z" fill="#0003A3"/>
<path d="M40.6973 30.1481L40.6152 29.766C39.8684 29.9938 39.6593 30.0085 39.495 30.0085C38.7333 30.0085 38.3674 29.6558 38.3674 28.4359C39.1664 28.4212 40.772 28.3845 40.772 28.3845C40.7795 28.1641 40.787 27.8848 40.787 27.7745C40.787 26.7751 40.2642 26.3342 39.4577 26.3342C38.4719 26.3342 37.9267 26.9956 37.9267 28.458C37.9267 29.7587 38.3972 30.3834 39.4875 30.3834C39.7489 30.3834 40.0401 30.3245 40.6973 30.1481ZM40.3762 28.0759C40.3762 28.0759 39.0395 28.0979 38.3748 28.1126C38.4047 27.0397 38.808 26.6722 39.4577 26.6722C40.0401 26.6722 40.3837 27.0103 40.3837 27.7378C40.3837 27.7672 40.3837 27.9289 40.3762 28.0759Z" fill="#0003A3"/>
<path d="M44.5075 30.1849L44.4179 29.7954C43.8503 29.9865 43.701 30.0012 43.4993 30.0012C42.8123 30.0012 42.4239 29.6485 42.4239 28.3551C42.4239 27.172 42.7226 26.709 43.5217 26.709C43.701 26.709 43.925 26.7384 44.3432 26.8487L44.4328 26.4518C43.9847 26.3563 43.7158 26.3342 43.4993 26.3342C42.5136 26.3342 41.9833 26.9075 41.9833 28.3551C41.9833 29.7587 42.4837 30.3834 43.4769 30.3834C43.701 30.3834 43.9549 30.354 44.5075 30.1849Z" fill="#0003A3"/>
<path d="M48.6729 30.3099V27.1132C48.6729 26.5253 48.3294 26.3342 47.7843 26.3342C47.3586 26.3342 46.9628 26.4444 46.2981 26.7531H46.2609V24.5926L45.8501 24.6808V30.3099H46.2609V27.0985C46.791 26.8413 47.2466 26.7237 47.6499 26.7237C48.1801 26.7237 48.2622 26.8781 48.2622 27.2602V30.3099H48.6729Z" fill="#0003A3"/>
<path d="M53.2765 30.3098V27.1132C53.2765 26.5106 52.9255 26.3342 52.3878 26.3342C51.9472 26.3342 51.5289 26.4591 50.9017 26.7531H50.8643V26.4077H50.4536V30.3098H50.8643V27.0985C51.3946 26.8413 51.8501 26.7237 52.2534 26.7237C52.7836 26.7237 52.8657 26.8781 52.8657 27.2602V30.3098H53.2765Z" fill="#0003A3"/>
<path d="M57.9696 28.3625C57.9696 26.7898 57.275 26.3342 56.3715 26.3342C55.4155 26.3342 54.7584 26.834 54.7584 28.3625C54.7584 29.8469 55.3783 30.3834 56.3715 30.3834C57.3423 30.3834 57.9696 29.8542 57.9696 28.3625ZM57.529 28.3625C57.529 29.6485 57.1182 30.0306 56.3715 30.0306C55.6172 30.0306 55.199 29.6411 55.199 28.3625C55.199 27.0324 55.6471 26.6869 56.3715 26.6869C57.0361 26.6869 57.529 26.9883 57.529 28.3625Z" fill="#0003A3"/>
<path d="M59.8746 30.3099V24.5926L59.4638 24.6808V30.3099H59.8746Z" fill="#0003A3"/>
<path d="M64.5804 28.3625C64.5804 26.7898 63.8859 26.3342 62.9823 26.3342C62.0264 26.3342 61.3693 26.834 61.3693 28.3625C61.3693 29.8469 61.9891 30.3834 62.9823 30.3834C63.9531 30.3834 64.5804 29.8542 64.5804 28.3625ZM64.1398 28.3625C64.1398 29.6485 63.7291 30.0306 62.9823 30.0306C62.228 30.0306 61.8098 29.6411 61.8098 28.3625C61.8098 27.0324 62.2579 26.6869 62.9823 26.6869C63.647 26.6869 64.1398 26.9883 64.1398 28.3625Z" fill="#0003A3"/>
<path d="M68.9722 30.6699C68.9722 30.0085 68.6287 29.8175 68.0462 29.7954L66.6048 29.744C66.3734 29.7366 66.3435 29.7072 66.3435 29.5529C66.3435 29.4648 66.4182 29.1194 66.5451 28.7519C66.7393 28.818 66.926 28.8401 67.1426 28.8401C67.9566 28.8401 68.5017 28.4874 68.5017 27.6276C68.5017 27.2381 68.3673 26.9295 68.1806 26.7604V26.731H68.8229L68.8826 26.4077H67.7325C67.5458 26.3636 67.3442 26.3342 67.1426 26.3342C66.2837 26.3342 65.8208 26.8119 65.8208 27.5982C65.8208 28.1567 65.9926 28.4139 66.239 28.6196C66.0448 29.2149 65.9552 29.5676 65.9552 29.7293C65.9552 29.913 66.0672 30.0232 66.239 30.0673V30.1114C65.8879 30.5303 65.7909 30.7655 65.7909 31.0741C65.7909 31.6767 66.1643 32 67.1575 32C68.3524 32 68.9722 31.368 68.9722 30.6699ZM68.5764 30.692C68.5764 31.3166 67.9715 31.64 67.1874 31.64C66.4481 31.64 66.1867 31.4415 66.1867 31.0153C66.1867 30.7728 66.239 30.5377 66.5676 30.1187C66.5676 30.1187 67.4935 30.1408 67.964 30.1628C68.33 30.1775 68.5764 30.2363 68.5764 30.692ZM68.091 27.5982C68.091 28.1861 67.8521 28.5021 67.1426 28.5021C66.5078 28.5021 66.2315 28.289 66.2315 27.5982C66.2315 26.9295 66.5377 26.6722 67.1426 26.6722C67.7698 26.6722 68.091 26.9001 68.091 27.5982Z" fill="#0003A3"/>
<path d="M73.3213 26.4077H72.9031L71.9846 29.5382C71.9397 29.6925 71.8949 29.9056 71.8949 29.9644H71.8651C71.8651 29.9056 71.8277 29.7072 71.7605 29.5235L70.618 26.4077H70.1773L71.6186 30.3098H71.7307L71.5365 30.8536C71.3125 31.4856 71.1033 31.6253 70.8569 31.6253C70.7374 31.6253 70.5059 31.5959 70.1623 31.4562L70.0429 31.831C70.4387 31.9633 70.6254 32 70.7972 32C71.4394 32 71.8054 31.493 72.1339 30.3834L73.3213 26.4077Z" fill="#0003A3"/>
<path d="M79.0878 30.3098V27.0471C79.0878 26.6208 78.9086 26.3342 78.2291 26.3342C77.8705 26.3342 77.3628 26.4077 76.6757 26.5914L76.7578 26.9662C77.2955 26.8119 77.893 26.709 78.1917 26.709C78.5352 26.709 78.6846 26.8339 78.6846 27.1206V28.2155L77.2134 28.3772C76.7504 28.4286 76.3844 28.7886 76.3844 29.3913C76.3844 30.0673 76.7504 30.3834 77.3478 30.3834C77.6391 30.3834 77.9303 30.3245 78.6621 30.0085H78.6995L78.7368 30.3098H79.0878ZM78.6846 29.6999C78.132 29.9277 77.7362 30.0232 77.5196 30.0232C76.9894 30.0232 76.8026 29.8469 76.8026 29.3545C76.8026 29.1341 76.8624 28.8915 77.0491 28.7152L78.6846 28.5462V29.6999Z" fill="#0003A3"/>
<path d="M83.7691 30.6699C83.7691 30.0085 83.4258 29.8175 82.8431 29.7954L81.4018 29.744C81.1704 29.7366 81.1405 29.7072 81.1405 29.5529C81.1405 29.4648 81.2152 29.1194 81.3421 28.7519C81.5363 28.818 81.723 28.8401 81.9393 28.8401C82.7532 28.8401 83.2984 28.4874 83.2984 27.6276C83.2984 27.2381 83.1643 26.9295 82.978 26.7604V26.731H83.6195L83.6792 26.4077H82.5293C82.343 26.3636 82.1411 26.3342 81.9393 26.3342C81.0807 26.3342 80.6177 26.8119 80.6177 27.5982C80.6177 28.1567 80.7895 28.4139 81.0359 28.6196C80.8418 29.2149 80.7522 29.5676 80.7522 29.7293C80.7522 29.913 80.8641 30.0232 81.0359 30.0673V30.1114C80.6849 30.5303 80.5878 30.7655 80.5878 31.0741C80.5878 31.6767 80.9612 32 81.9548 32C83.1496 32 83.7691 31.368 83.7691 30.6699ZM83.3735 30.692C83.3735 31.3166 82.7688 31.64 81.9842 31.64C81.2451 31.64 80.9836 31.4415 80.9836 31.0153C80.9836 30.7728 81.0359 30.5377 81.3646 30.1187C81.3646 30.1187 82.2907 30.1408 82.7614 30.1628C83.1267 30.1775 83.3735 30.2363 83.3735 30.692ZM82.8881 27.5982C82.8881 28.1861 82.6486 28.5021 81.9393 28.5021C81.3048 28.5021 81.0285 28.289 81.0285 27.5982C81.0285 26.9295 81.3346 26.6722 81.9393 26.6722C82.5669 26.6722 82.8881 26.9001 82.8881 27.5982Z" fill="#0003A3"/>
<path d="M87.5024 30.1481L87.4198 29.766C86.6737 29.9938 86.4645 30.0085 86.3002 30.0085C85.5385 30.0085 85.1724 29.6558 85.1724 28.4359C85.9717 28.4212 87.5767 28.3845 87.5767 28.3845C87.5841 28.1641 87.5923 27.8848 87.5923 27.7745C87.5923 26.7751 87.0692 26.3342 86.2626 26.3342C85.277 26.3342 84.7319 26.9956 84.7319 28.458C84.7319 29.7587 85.2018 30.3834 86.2928 30.3834C86.5535 30.3834 86.8453 30.3245 87.5024 30.1481ZM87.1812 28.0759C87.1812 28.0759 85.8442 28.0979 85.1797 28.1126C85.21 27.0397 85.6129 26.6722 86.2626 26.6722C86.8453 26.6722 87.1885 27.0103 87.1885 27.7378C87.1885 27.7672 87.1885 27.9289 87.1812 28.0759Z" fill="#0003A3"/>
<path d="M91.9099 30.3098V27.1132C91.9099 26.5106 91.5592 26.3342 91.0215 26.3342C90.5802 26.3342 90.1626 26.4591 89.5349 26.7531H89.4973V26.4077H89.087V30.3098H89.4973V27.0985C90.0277 26.8413 90.4837 26.7237 90.8866 26.7237C91.417 26.7237 91.4988 26.8781 91.4988 27.2602V30.3098H91.9099Z" fill="#0003A3"/>
<path d="M95.916 30.1849L95.8261 29.7954C95.259 29.9865 95.1094 30.0012 94.9075 30.0012C94.221 30.0012 93.832 29.6485 93.832 28.3551C93.832 27.172 94.1311 26.709 94.9304 26.709C95.1094 26.709 95.3333 26.7384 95.7518 26.8487L95.8417 26.4518C95.393 26.3563 95.1241 26.3342 94.9075 26.3342C93.9219 26.3342 93.3915 26.9075 93.3915 28.3551C93.3915 29.7587 93.8925 30.3834 94.8855 30.3834C95.1094 30.3834 95.3636 30.354 95.916 30.1849Z" fill="#0003A3"/>
<path d="M99.8798 26.4077H99.4613L98.5427 29.5382C98.4978 29.6925 98.4537 29.9056 98.4537 29.9644H98.4234C98.4234 29.9056 98.3858 29.7072 98.3188 29.5235L97.1763 26.4077H96.7358L98.1774 30.3098H98.2894L98.0949 30.8536C97.8709 31.4856 97.6617 31.6253 97.4157 31.6253C97.2956 31.6253 97.0643 31.5959 96.7211 31.4562L96.6009 31.831C96.9973 31.9633 97.1836 32 97.3553 32C97.9976 32 98.3637 31.493 98.6923 30.3834L99.8798 26.4077Z" fill="#0003A3"/>
<path d="M45.392 21.6894C51.8241 21.6894 56.4694 16.8544 56.4694 10.8448C56.4694 4.83506 51.8241 1.52588e-05 45.392 1.52588e-05C38.9325 1.52588e-05 34.2871 4.83506 34.2871 10.8448C34.2871 16.8544 38.9325 21.6894 45.392 21.6894ZM45.392 16.7178C41.9836 16.7178 39.5647 14.15 39.5647 10.8448C39.5647 7.5394 41.9836 4.99896 45.392 4.97165C48.8005 4.94433 51.2193 7.5394 51.2193 10.8448C51.2193 14.15 48.8005 16.7178 45.392 16.7178Z" fill="#0003A3"/>
<path d="M78.0045 20.2416L69.1261 10.7628L77.4273 1.33854C77.8671 0.846836 77.5647 0.191238 76.905 0.191238H72.617C72.3421 0.191238 72.1772 0.245871 71.9848 0.491721L64.6731 8.90526V0.710254C64.6731 0.409771 64.4257 0.191238 64.1234 0.191238H60.0553C59.7529 0.191238 59.533 0.409771 59.533 0.710254V20.9519C59.533 21.2797 59.7803 21.4982 60.0827 21.4982H64.1509C64.4533 21.4982 64.6731 21.2524 64.6731 20.9519V12.511L72.6994 21.225C72.8919 21.4436 73.0568 21.4982 73.3316 21.4982H77.4823C78.197 21.4982 78.4993 20.788 78.0045 20.2416Z" fill="#0003A3"/>
<path d="M99.5528 0.191238H95.4845C95.1821 0.191238 94.9622 0.437088 94.9622 0.737571V12.8115L86.1939 0.682938C85.974 0.355138 85.6716 0.191238 85.2589 0.191238H81.2458C80.9709 0.191238 80.7235 0.409771 80.7235 0.710254V20.9519C80.7235 21.2797 80.9709 21.4982 81.2733 21.4982H85.3415C85.6439 21.4982 85.8637 21.2524 85.8637 20.9519V8.35891L94.6321 21.0065C94.8797 21.3343 95.1543 21.4982 95.567 21.4982H99.5798C99.8544 21.4982 100.102 21.2797 100.102 20.9792V0.737571C100.102 0.409771 99.8544 0.191238 99.5528 0.191238Z" fill="#0003A3"/>
</svg>
